<?xml version="1.0" encoding="UTF-8"?>
<svg width="50px" height="60px" viewBox="0 0 50 60" version="1.1" xmlns="http://www.w3.org/2000/svg" xmlns:xlink="http://www.w3.org/1999/xlink">
    <title>user-5</title>
    <g id="Organization-onboarding" stroke="none" stroke-width="1" fill="none" fill-rule="evenodd">
        <g id="Dashboard" transform="translate(-423.000000, -618.000000)">
            <g id="user-5" transform="translate(423.000000, 618.000000)">
                <path d="M38.9803592,14.4052096 C38.9803592,18.3639383 37.5606929,21.7905776 34.7601489,24.5915778 C31.959605,27.3921217 28.5325095,28.8117881 24.5737806,28.8117881 L24.5669356,28.8117881 C20.6132265,28.8104192 17.1884126,27.3907528 14.3878687,24.5915778 C11.5868685,21.7905776 10.1676584,18.3639383 10.1676584,14.4052096 C10.1676584,10.4478498 11.5868685,7.02075421 14.3878687,4.22021028 C17.1870437,1.42057897 20.6118575,0.00136901869 24.5669356,0 L24.5737806,0 C28.5311404,0 31.958236,1.41966636 34.7601489,4.22021028 C37.5606929,7.02075421 38.9803592,10.4478498 38.9803592,14.4052096 Z" id="Path" fill="#FFBB85" fill-rule="nonzero"></path>
                <path d="M49.9028001,49.5263215 C49.9028001,52.6494963 48.909353,55.178063 46.9525773,57.0403768 C45.0186186,58.8807863 42.4608463,59.8130841 39.3509054,59.8130841 L10.5505257,59.8130841 C7.44058481,59.8130841 4.8828125,58.8807863 2.95022266,57.0403768 C0.992078037,55.1766939 0,52.6485835 0,49.5263215 C0,48.3252409 0.0397014019,47.1369379 0.119104089,45.9942685 C0.199875935,44.8260442 0.363244743,43.5546875 0.604191005,42.2135112 C0.846962617,40.8613829 1.15909755,39.5831812 1.53283808,38.4149569 C1.920725,37.2056623 2.44551332,36.0127957 3.09488178,34.8701263 C3.76934871,33.6841049 4.56155082,32.6509565 5.44958388,31.8003432 C6.38051262,30.9100285 7.51861857,30.1949474 8.83423995,29.6738098 C10.1452979,29.1554103 11.5987332,28.8925598 13.1539318,28.8925598 C13.7640551,28.8925598 14.3550124,29.1421765 15.4940311,29.8841815 C16.2068305,30.3491895 17.0282382,30.8785411 17.9349811,31.45809 C18.7180563,31.9573234 19.778585,32.4255257 21.089643,32.8485507 C22.2418954,33.2213785 23.4114888,33.4294685 24.5669356,33.4655192 C24.6942537,33.4700825 24.821572,33.4723643 24.9488902,33.4723643 C26.2321116,33.4723643 27.5299357,33.2619925 28.8095064,32.8485507 C30.1205644,32.4255257 31.182462,31.9573234 31.9650811,31.45809 C32.881407,30.8726088 33.7028147,30.3437136 34.4051182,29.8855505 C35.5450496,29.1421765 36.1350942,28.8925598 36.7465866,28.8925598 C38.3004161,28.8925598 39.7538515,29.1554103 41.0658222,29.6738098 C42.3814435,30.1949474 43.5195495,30.9113974 44.4495655,31.8003432 C45.3389675,32.6509565 46.1311696,33.6841049 46.8051804,34.8701263 C47.4550051,36.0137084 47.9807061,37.2056623 48.3672241,38.4135879 C48.7414208,39.5831812 49.0544685,40.8613829 49.2972401,42.2144239 C49.5368173,43.5569692 49.7006425,44.8283258 49.7809579,45.9933557 C49.8617297,47.1323744 49.9014311,48.3206776 49.9028001,49.5263215 L49.9028001,49.5263215 Z" id="Path" fill="#6DAADF"></path>
                <path d="M24.5737806,28.8117881 L24.5669356,28.8117881 L24.5669356,0 L24.5737806,0 C28.5311404,0 31.958236,1.41966636 34.7601489,4.22021028 C37.5606929,7.02075421 38.9803592,10.4478498 38.9803592,14.4052096 C38.9803592,18.3639383 37.5606929,21.7905776 34.7601489,24.5915778 C31.959605,27.3921217 28.5325095,28.8117881 24.5737806,28.8117881 Z" id="Path" fill="#F5A86C" fill-rule="nonzero"></path>
                <path d="M49.9028001,49.5263215 C49.9028001,52.6494963 48.909353,55.178063 46.9525773,57.0403768 C45.0186186,58.8807863 42.4608463,59.8130841 39.3509054,59.8130841 L24.5669356,59.8130841 L24.5669356,33.4655192 C24.6942537,33.4700825 24.821572,33.4723643 24.9488902,33.4723643 C26.2321116,33.4723643 27.5299357,33.2619925 28.8095064,32.8485507 C30.1205644,32.4255257 31.182462,31.9573234 31.9650811,31.45809 C32.881407,30.8726088 33.7028147,30.3437136 34.4051182,29.8855505 C35.5450496,29.1421765 36.1350942,28.8925598 36.7465866,28.8925598 C38.3004161,28.8925598 39.7538515,29.1554103 41.0658222,29.6738098 C42.3814435,30.1949474 43.5195495,30.9113974 44.4495655,31.8003432 C45.3389675,32.6509565 46.1311696,33.6841049 46.8051804,34.8701263 C47.4550051,36.0137084 47.9807061,37.2056623 48.3672241,38.4135879 C48.7414208,39.5831812 49.0544685,40.8613829 49.2972401,42.2144239 C49.5368173,43.5569692 49.7006425,44.8283258 49.7809579,45.9933557 C49.8617297,47.1323744 49.9014311,48.3206776 49.9028001,49.5263215 L49.9028001,49.5263215 Z" id="Path" fill="#4391D5"></path>
            </g>
        </g>
    </g>
</svg>