<?xml version="1.0" encoding="UTF-8"?>
<svg width="195px" height="53px" viewBox="0 0 195 53" version="1.1" xmlns="http://www.w3.org/2000/svg" xmlns:xlink="http://www.w3.org/1999/xlink">
    <title>lama-logo 2</title>
    <g id="Page-1" stroke="none" stroke-width="1" fill="none" fill-rule="evenodd">
        <g id="lama-logo">
            <g id="Group">
                <path d="M26.461441,-4.23132191e-15 C11.8472865,-4.23132191e-15 -4.23132191e-15,11.8471376 -4.23132191e-15,26.461441 C-4.23132191e-15,34.571632 3.64985393,41.8281657 9.39499438,46.6819831 C11.8562191,38.2537921 12.9001404,28.4082978 17.2523933,21.8715815 C16.2881208,16.2756152 18.3677753,8.33186798 23.0858174,9.51052247 C25.3076489,10.5688848 22.877986,16.5858736 22.2525562,19.2325983 C24.0225478,19.5430056 25.8424129,19.1827247 25.8424129,19.1827247 C28.7280843,17.0807388 29.4540056,11.0586882 33.7808006,10.3436348 C36.0455084,14.2415169 31.5716236,18.0846124 30.0303062,20.8992697 C31.5899354,21.8254298 33.2439522,22.7830028 34.4992781,23.9570421 C34.7572809,24.1982219 34.6960927,25.4139466 34.9819354,25.620736 C37.7782809,27.6463483 39.5866826,29.2857753 41.5579551,31.8717584 C41.4245618,32.4319803 41.3714129,33.074382 41.0030927,33.3995281 C43.1074607,39.2442669 34.7163399,41.1250225 30.4470112,37.0106742 C26.7060449,39.2627275 22.7383399,38.8647809 20.4468343,35.4830534 C21.4012809,37.9398118 24.2001573,40.9734663 28.3640815,39.788559 C26.7435618,43.5625758 26.2093933,48.1775955 25.9528792,52.9164803 C26.1221517,52.9199045 26.2912753,52.922882 26.461441,52.922882 C41.0755955,52.922882 52.922882,41.0755955 52.922882,26.461441 C52.922882,11.8471376 41.0755955,-4.23132191e-15 26.461441,-4.23132191e-15" id="Fill-4" fill="#EE2629"></path>
                <path d="M21.3347331,13.0915955 C18.5930253,12.1335758 17.502059,22.4203399 20.4032135,22.6761096 C19.1090309,19.5989831 23.8418118,14.4210618 21.3347331,13.0915955" id="Fill-5" fill="#E93538"></path>
                <path d="M40.0989663,33.1727893 C39.7937697,32.5327697 39.3213848,32.0006854 38.621368,31.7791573 C38.0473006,31.5972303 36.9136067,31.465177 36.786764,32.254073 C36.5914382,33.4662247 39.2996489,32.5932135 40.0989663,33.1727893" id="Fill-6" fill="#E93538"></path>
                <path d="M29.6384635,29.2068708 C26.8640028,23.94275 23.8654831,28.8961657 22.1138034,27.5878399 C25.5474888,31.3408652 26.461441,26.7283764 29.6384635,29.2068708" id="Fill-7" fill="#E93538"></path>
            </g>
            <path d="M94.0917969,44 L94.0917969,37.8808594 L77.9179688,37.8808594 L77.9179688,7.03125 L70.3007812,7.03125 L70.3007812,44 L94.0917969,44 Z M106.453516,44.5078125 C109.297266,44.5078125 111.607812,43.5175781 113.385156,41.5371094 C113.5375,42.5188802 113.782943,43.3398438 114.121484,44 L114.121484,44 L121.535547,44 L121.535547,43.5683594 C120.824609,42.2311198 120.460677,40.2591146 120.44375,37.6523438 L120.44375,37.6523438 L120.44375,25.7441406 C120.44375,22.6634115 119.449284,20.2724609 117.460352,18.5712891 C115.471419,16.8701172 112.784245,16.0195312 109.398828,16.0195312 C107.164453,16.0195312 105.15013,16.4046224 103.355859,17.1748047 C101.561589,17.944987 100.173568,19.0071615 99.1917969,20.3613281 C98.210026,21.7154948 97.7191406,23.188151 97.7191406,24.7792969 L97.7191406,24.7792969 L105.057031,24.7792969 C105.057031,23.7467448 105.408268,22.9342448 106.110742,22.3417969 C106.813216,21.749349 107.782292,21.453125 109.017969,21.453125 C110.422917,21.453125 111.451237,21.8339844 112.10293,22.5957031 C112.754622,23.3574219 113.080469,24.3730469 113.080469,25.6425781 L113.080469,25.6425781 L113.080469,27.2167969 L109.703516,27.2167969 C105.624089,27.233724 102.505273,28.0208333 100.34707,29.578125 C98.1888672,31.1354167 97.1097656,33.3697917 97.1097656,36.28125 C97.1097656,38.6510417 97.9942057,40.6145833 99.7630859,42.171875 C101.531966,43.7291667 103.762109,44.5078125 106.453516,44.5078125 Z M108.053125,38.8964844 C106.935937,38.8964844 106.055729,38.6002604 105.4125,38.0078125 C104.769271,37.4153646 104.447656,36.6621094 104.447656,35.7480469 L104.447656,35.7480469 L104.473047,35.3164062 C104.710026,32.7773438 106.665104,31.5078125 110.338281,31.5078125 L110.338281,31.5078125 L113.080469,31.5078125 L113.080469,36.2304688 C112.640365,37.0429688 111.963281,37.6904297 111.049219,38.1728516 C110.135156,38.6552734 109.136458,38.8964844 108.053125,38.8964844 Z M133.643359,44 L133.643359,24.5761719 C134.574349,22.8496094 136.080859,21.9863281 138.162891,21.9863281 C139.669401,21.9863281 140.735807,22.3417969 141.362109,23.0527344 C141.988411,23.7636719 142.301562,24.9147135 142.301562,26.5058594 L142.301562,26.5058594 L142.301562,44 L149.639453,44 L149.614062,25.1347656 C150.460417,23.0358073 151.983854,21.9863281 154.184375,21.9863281 C155.72474,21.9863281 156.799609,22.3460286 157.408984,23.0654297 C158.018359,23.7848307 158.323047,24.9231771 158.323047,26.4804688 L158.323047,26.4804688 L158.323047,44 L165.686328,44 L165.686328,26.4550781 C165.686328,22.968099 164.958464,20.3570964 163.502734,18.6220703 C162.047005,16.8870443 159.829557,16.0195312 156.850391,16.0195312 C153.278776,16.0195312 150.528125,17.4160156 148.598437,20.2089844 C147.278125,17.4160156 144.849089,16.0195312 141.311328,16.0195312 C137.99362,16.0195312 135.361458,17.2128906 133.414844,19.5996094 L133.414844,19.5996094 L133.186328,16.5273438 L126.305469,16.5273438 L126.305469,44 L133.643359,44 Z M179.8,44.5078125 C182.64375,44.5078125 184.954297,43.5175781 186.731641,41.5371094 C186.883984,42.5188802 187.129427,43.3398438 187.467969,44 L187.467969,44 L194.882031,44 L194.882031,43.5683594 C194.171094,42.2311198 193.807161,40.2591146 193.790234,37.6523438 L193.790234,37.6523438 L193.790234,25.7441406 C193.790234,22.6634115 192.795768,20.2724609 190.806836,18.5712891 C188.817904,16.8701172 186.130729,16.0195312 182.745313,16.0195312 C180.510938,16.0195312 178.496615,16.4046224 176.702344,17.1748047 C174.908073,17.944987 173.520052,19.0071615 172.538281,20.3613281 C171.55651,21.7154948 171.065625,23.188151 171.065625,24.7792969 L171.065625,24.7792969 L178.403516,24.7792969 C178.403516,23.7467448 178.754753,22.9342448 179.457227,22.3417969 C180.159701,21.749349 181.128776,21.453125 182.364453,21.453125 C183.769401,21.453125 184.797721,21.8339844 185.449414,22.5957031 C186.101107,23.3574219 186.426953,24.3730469 186.426953,25.6425781 L186.426953,25.6425781 L186.426953,27.2167969 L183.05,27.2167969 C178.970573,27.233724 175.851758,28.0208333 173.693555,29.578125 C171.535352,31.1354167 170.45625,33.3697917 170.45625,36.28125 C170.45625,38.6510417 171.34069,40.6145833 173.10957,42.171875 C174.878451,43.7291667 177.108594,44.5078125 179.8,44.5078125 Z M181.399609,38.8964844 C180.282422,38.8964844 179.402214,38.6002604 178.758984,38.0078125 C178.115755,37.4153646 177.794141,36.6621094 177.794141,35.7480469 L177.794141,35.7480469 L177.819531,35.3164062 C178.05651,32.7773438 180.011589,31.5078125 183.684766,31.5078125 L183.684766,31.5078125 L186.426953,31.5078125 L186.426953,36.2304688 C185.986849,37.0429688 185.309766,37.6904297 184.395703,38.1728516 C183.481641,38.6552734 182.482943,38.8964844 181.399609,38.8964844 Z" id="Lama" fill="#444444" fill-rule="nonzero"></path>
        </g>
    </g>
</svg>